<svg width="16" height="20" viewBox="0 0 16 20" fill="none" xmlns="http://www.w3.org/2000/svg">
<path d="M0 16.5278V14.5833H1.94444V7.77779C1.94444 6.43288 2.34954 5.23786 3.15972 4.19272C3.96991 3.14758 5.02315 2.46298 6.31944 2.1389V1.45835C6.31944 1.05325 6.46123 0.708925 6.74479 0.42536C7.02836 0.141796 7.37269 1.33514e-05 7.77778 1.33514e-05C8.18287 1.33514e-05 8.5272 0.141796 8.81076 0.42536C9.09433 0.708925 9.23611 1.05325 9.23611 1.45835V2.1389C10.5324 2.46298 11.5856 3.14758 12.3958 4.19272C13.206 5.23786 13.6111 6.43288 13.6111 7.77779V14.5833H15.5556V16.5278H0ZM7.77778 19.4445C7.24306 19.4445 6.7853 19.2541 6.40451 18.8733C6.02373 18.4925 5.83333 18.0347 5.83333 17.5H9.72222C9.72222 18.0347 9.53183 18.4925 9.15104 18.8733C8.77026 19.2541 8.3125 19.4445 7.77778 19.4445ZM3.88889 14.5833H11.6667V7.77779C11.6667 6.70835 11.2859 5.79284 10.5243 5.03126C9.76273 4.26969 8.84722 3.8889 7.77778 3.8889C6.70833 3.8889 5.79282 4.26969 5.03125 5.03126C4.26968 5.79284 3.88889 6.70835 3.88889 7.77779V14.5833Z" fill="#D1D5DB"/>
</svg>
