<svg width="19" height="17" viewBox="0 0 19 17" fill="none" xmlns="http://www.w3.org/2000/svg">
<path d="M0 15.5555V12.8333C0 12.2824 0.141782 11.776 0.425347 11.3142C0.708912 10.8524 1.08565 10.5 1.55556 10.2569C2.56019 9.75462 3.58102 9.37789 4.61806 9.12673C5.65509 8.87557 6.70833 8.74999 7.77778 8.74999C8.37732 8.74999 8.96875 8.78645 9.55208 8.85937C10.1354 8.93228 10.7188 9.04976 11.3021 9.2118L9.67361 10.8646C9.34954 10.816 9.03357 10.7755 8.7257 10.743C8.41782 10.7106 8.10185 10.6944 7.77778 10.6944C6.87037 10.6944 5.97107 10.8038 5.07986 11.0226C4.18866 11.2413 3.30556 11.5694 2.43056 12.0069C2.28472 12.088 2.16725 12.2014 2.07813 12.3472C1.989 12.493 1.94444 12.6551 1.94444 12.8333V13.6111H7.77778V15.5555H0ZM9.72222 16.5278V13.5382L15.0938 8.19097C15.2396 8.04513 15.4016 7.93981 15.5799 7.87499C15.7581 7.81018 15.9363 7.77777 16.1146 7.77777C16.309 7.77777 16.4954 7.81423 16.6736 7.88715C16.8519 7.96006 17.0139 8.06944 17.1597 8.21527L18.059 9.11458C18.1887 9.26041 18.2899 9.42245 18.3628 9.60069C18.4358 9.77893 18.4722 9.95717 18.4722 10.1354C18.4722 10.3137 18.4398 10.4959 18.375 10.6823C18.3102 10.8686 18.2049 11.0347 18.059 11.1805L12.7118 16.5278H9.72222ZM11.1806 15.0694H12.1042L15.0451 12.1042L14.6076 11.6424L14.1458 11.2049L11.1806 14.1458V15.0694ZM14.6076 11.6424L14.1458 11.2049L15.0451 12.1042L14.6076 11.6424ZM7.77778 7.77777C7.77778 7.77777 7.51042 7.77777 6.9757 7.77777C6.44097 7.77777 5.79282 7.39698 5.03125 6.63541C4.26968 5.87384 3.88889 4.95833 3.88889 3.88888C3.88889 2.81944 4.26968 1.90393 5.03125 1.14235C5.79282 0.380779 6.70833 -7.62939e-06 7.77778 -7.62939e-06C8.84722 -7.62939e-06 9.76273 0.380779 10.5243 1.14235C11.2859 1.90393 11.6667 2.81944 11.6667 3.88888C11.6667 4.95833 11.2859 5.87384 10.5243 6.63541C9.76273 7.39698 8.84722 7.77777 7.77778 7.77777ZM7.77778 5.83333C7.77778 5.83333 7.91146 5.83333 8.17882 5.83333C8.44618 5.83333 8.77026 5.64293 9.15104 5.26215C9.53183 4.88136 9.72222 4.4236 9.72222 3.88888C9.72222 3.35416 9.53183 2.89641 9.15104 2.51562C8.77026 2.13483 8.3125 1.94444 7.77778 1.94444C7.24306 1.94444 6.7853 2.13483 6.40451 2.51562C6.02373 2.89641 5.83333 3.35416 5.83333 3.88888C5.83333 4.4236 6.02373 4.88136 6.40451 5.26215C6.7853 5.64293 7.24306 5.83333 7.77778 5.83333Z" fill="#00FFA3"/>
</svg>
