<svg width="30" height="30" viewBox="0 0 30 30" fill="none" xmlns="http://www.w3.org/2000/svg">
<path d="M14.9475 21C14.9475 21 15.0394 21 15.2231 21C15.4069 21 15.6256 20.8792 15.8794 20.6375C16.1331 20.3958 16.26 20.1 16.26 19.75C16.26 19.4 16.1331 19.1042 15.8794 18.8625C15.6256 18.6208 15.315 18.5 14.9475 18.5C14.58 18.5 14.2694 18.6208 14.0156 18.8625C13.7619 19.1042 13.635 19.4 13.635 19.75C13.635 20.1 13.7619 20.3958 14.0156 20.6375C14.2694 20.8792 14.58 21 14.9475 21ZM14.0025 17.15H15.945C15.945 16.6 16.0106 16.1667 16.1419 15.85C16.2731 15.5333 16.645 15.1 17.2575 14.55C17.7125 14.1167 18.0712 13.7042 18.3337 13.3125C18.5962 12.9208 18.7275 12.45 18.7275 11.9C18.7275 10.9667 18.3687 10.25 17.6512 9.75C16.9337 9.25 16.085 9 15.105 9C14.1075 9 13.2981 9.25 12.6769 9.75C12.0556 10.25 11.6225 10.85 11.3775 11.55L13.11 12.2C13.1975 11.9 13.3944 11.575 13.7006 11.225C14.0069 10.875 14.475 10.7 15.105 10.7C15.665 10.7 16.085 10.8458 16.365 11.1375C16.645 11.4292 16.785 11.75 16.785 12.1C16.785 12.4333 16.68 12.7458 16.47 13.0375C16.26 13.3292 15.9975 13.6 15.6825 13.85C14.9125 14.5 14.44 14.9917 14.265 15.325C14.09 15.6583 14.0025 16.2667 14.0025 17.15ZM15 25C13.5475 25 12.1825 24.7375 10.905 24.2125C9.6275 23.6875 8.51625 22.975 7.57125 22.075C6.62625 21.175 5.87812 20.1167 5.32687 18.9C4.77562 17.6833 4.5 16.3833 4.5 15C4.5 13.6167 4.77562 12.3167 5.32687 11.1C5.87812 9.88333 6.62625 8.825 7.57125 7.925C8.51625 7.025 9.6275 6.3125 10.905 5.7875C12.1825 5.2625 13.5475 5 15 5C16.4525 5 17.8175 5.2625 19.095 5.7875C20.3725 6.3125 21.4837 7.025 22.4287 7.925C23.3737 8.825 24.1219 9.88333 24.6731 11.1C25.2244 12.3167 25.5 13.6167 25.5 15C25.5 16.3833 25.2244 17.6833 24.6731 18.9C24.1219 20.1167 23.3737 21.175 22.4287 22.075C21.4837 22.975 20.3725 23.6875 19.095 24.2125C17.8175 24.7375 16.4525 25 15 25ZM15 23C17.345 23 19.3312 22.225 20.9587 20.675C22.5863 19.125 23.4 17.2333 23.4 15C23.4 12.7667 22.5863 10.875 20.9587 9.325C19.3312 7.775 17.345 7 15 7C12.655 7 10.6687 7.775 9.04125 9.325C7.41375 10.875 6.6 12.7667 6.6 15C6.6 17.2333 7.41375 19.125 9.04125 20.675C10.6687 22.225 12.655 23 15 23Z" fill="#D1D5DB"/>
</svg>
