<svg width="20" height="20" viewBox="0 0 20 20" fill="none" xmlns="http://www.w3.org/2000/svg">
<path d="M9.5 1.8025C12.17 1.8025 12.4867 1.8125 13.5417 1.86083C14.5167 1.90583 15.0458 2.06833 15.3975 2.20417C15.8625 2.385 16.195 2.60167 16.545 2.95083C16.8942 3.30083 17.1108 3.63333 17.2917 4.09833C17.4283 4.45 17.5917 4.18642 17.6358 5.95417C17.6833 7.00917 17.6942 7.32583 17.6942 9.99583C17.6942 12.6658 17.6842 12.9825 17.6358 14.0375C17.5908 15.0125 17.4283 15.5417 17.2917 15.8933C17.1108 16.3583 16.8942 16.6908 16.545 17.0408C16.195 17.39 15.8625 17.6067 15.3975 17.7875C15.0458 17.9242 14.5167 18.0875 13.5417 18.1317C12.4867 18.1792 12.17 18.19 9.5 18.19C6.83 18.19 6.51333 18.18 5.45833 18.1317C4.48333 18.0867 3.95417 17.9242 3.6025 17.7875C3.1375 17.6067 2.805 17.39 2.455 17.0408C2.10583 16.6908 1.88917 16.3583 1.70833 15.8933C1.57167 15.5417 1.40833 15.0125 1.36417 14.0375C1.31667 12.9825 1.30583 12.6658 1.30583 9.99583C1.30583 7.32583 1.31583 7.00917 1.36417 5.95417C1.40917 4.97917 1.57167 4.45 1.70833 4.09833C1.88917 3.63333 2.10583 3.30083 2.455 2.95083C2.805 2.60167 3.1375 2.385 3.6025 2.20417C3.95417 2.0675 4.48333 1.90417 5.45833 1.86C6.51333 1.8125 6.83 1.80167 9.5 1.80167V1.8025ZM9.5 0C6.78417 0 6.44417 0.0116667 5.3775 0.06C4.31333 0.1075 3.58583 0.276667 2.94917 0.524167C2.29083 0.779167 1.73333 1.12167 1.1775 1.6775C0.621667 2.23333 0.279167 2.79 0.0241666 3.44917C-0.223333 4.08583 -0.3925 4.81333 -0.44 5.8775C-0.488333 6.94417 -0.5 7.28417 -0.5 10C-0.5 12.7158 -0.488333 13.0558 -0.44 14.1225C-0.3925 15.1867 -0.223333 15.9142 0.0241666 16.5508C0.279167 17.2092 0.621667 17.7667 1.1775 18.3225C1.73333 18.8783 2.29 19.2208 2.94917 19.4758C3.58583 19.7233 4.31333 19.8925 5.3775 19.94C6.44417 19.9883 6.78417 20 9.5 20C12.2158 20 12.5558 19.9883 13.6225 19.94C14.6867 19.8925 15.4142 19.7233 16.0508 19.4758C16.7092 19.2208 17.2667 18.8783 17.8225 18.3225C18.3783 17.7667 18.7208 17.21 19.5942 17.1692C20.2308 16.9217 20.9583 16.7525 22.0225 16.705C23.0892 16.6567 23.4292 16.645 26.145 16.645C28.8608 16.645 29.2008 16.6567 30.2675 16.705C31.3317 16.7525 32.0592 16.9217 32.6958 17.1692C32.9508 17.8275 33.2933 18.385 33.8492 18.9408C34.405 19.4967 34.9617 19.8392 35.6208 20.0942C36.2575 20.3417 36.985 20.5108 38.0492 20.5583C39.1158 20.6067 39.4558 20.6183 42.1717 20.6183L9.5 0Z" fill="white"/>
</svg>
