<svg width="20" height="17" viewBox="0 0 20 17" fill="none" xmlns="http://www.w3.org/2000/svg">
<path d="M19.5 1.92417C18.7642 2.25083 17.9733 2.47083 17.1433 2.57C17.9908 2.0625 18.6417 1.25833 18.9475 0.3C18.155 0.77 17.2767 1.11167 16.3417 1.29583C15.5942 0.498333 14.5267 0 13.3467 0C10.6975 0 8.75083 2.47167 9.34917 5.0375C5.94 4.86667 2.91667 3.23333 0.8925 0.750833C-0.1825 2.595 0.335 5.0075 2.16167 6.22917C1.49 6.2075 0.856667 6.02333 0.304167 5.71583C0.259167 7.61667 1.62167 9.395 3.595 9.79083C3.0175 9.9475 2.385 9.98417 1.74167 9.86083C2.26333 11.4908 3.77833 12.6767 5.575 12.71C3.85 14.0625 1.67667 14.6667 -0.5 14.41C1.31583 15.5742 3.47333 16.2533 5.79 16.2533C13.4083 16.2533 17.7125 9.81917 17.4525 4.04833C18.2542 3.46917 18.95 2.74667 19.5 1.92417Z" fill="white"/>
</svg>
