<svg width="20" height="20" viewBox="0 0 20 20" fill="none" xmlns="http://www.w3.org/2000/svg">
<path d="M9.5 0C3.9775 0 -0.5 4.4775 -0.5 10C-0.5 15.5225 3.9775 20 9.5 20C15.0225 20 19.5 15.5225 19.5 10C19.5 4.4775 15.0225 0 9.5 0ZM13.675 11.9367C13.63 12.7283 13.2267 13.2633 12.4692 13.535C11.7942 13.7783 11.105 13.8725 10.4 13.8775C9.53917 13.8867 8.6775 13.8767 7.81583 13.8892C6.87667 13.9025 6.20917 13.4592 5.9075 12.6275C5.84417 12.4517 5.79 12.2667 5.77417 12.0858C5.72917 11.5633 5.75917 11.0375 5.75917 10.5133L5.76 7.505C5.76 7.09417 5.7625 6.68333 5.75917 6.2725C5.75417 5.58417 6.085 5.06333 6.72333 4.81583C7.38 4.56083 8.07583 4.48333 8.77583 4.47917C9.705 4.4725 10.635 4.48083 11.5642 4.47C12.31 4.46083 12.945 4.805 13.2192 5.51167C13.3067 5.73667 13.3417 5.98 13.3508 6.22167C13.3667 6.6825 13.36 7.14417 13.36 7.60583V10.3667C13.36 10.9033 13.3433 11.44 13.3683 11.9767H13.3417L13.675 11.9367Z" fill="white"/>
</svg>
