<svg width="27" height="20" viewBox="0 0 27 20" fill="none" xmlns="http://www.w3.org/2000/svg">
<path d="M15.7855 10.9375C14.7736 10.9375 13.9135 10.5831 13.2051 9.87415C12.4968 9.16523 12.1427 8.30441 12.1427 7.29168C12.1427 6.27895 12.4968 5.41813 13.2051 4.70922C13.9135 4.0003 14.7736 3.64585 15.7855 3.64585C16.7973 3.64585 17.6574 4.0003 18.3658 4.70922C19.0741 5.41813 19.4283 6.27895 19.4283 7.29168C19.4283 8.30441 19.0741 9.16523 18.3658 9.87415C17.6574 10.5831 16.7973 10.9375 15.7855 10.9375ZM7.2856 14.5833C6.61775 14.5833 6.04603 14.3454 5.57044 13.8694C5.09486 13.3934 4.85706 12.8212 4.85706 12.1528V2.43057C4.85706 1.76217 5.09486 1.18997 5.57044 0.713989C6.04603 0.238007 6.61775 1.33514e-05 7.2856 1.33514e-05H24.2853C24.9532 1.33514e-05 25.5249 0.238007 26.0005 0.713989C26.4761 1.18997 26.7139 1.76217 26.7139 2.43057V12.1528C26.7139 12.8212 26.4761 13.3934 26.0005 13.8694C25.5249 14.3454 24.9532 14.5833 24.2853 14.5833H7.2856ZM9.71413 12.1528H21.8568C21.8568 11.4844 22.0946 10.9122 22.5702 10.4362C23.0458 9.96023 23.6175 9.72224 24.2853 9.72224V4.86112C23.6175 4.86112 23.0458 4.62313 22.5702 4.14715C22.0946 3.67117 21.8568 3.09897 21.8568 2.43057H9.71413C9.71413 3.09897 9.47633 3.67117 9.00075 4.14715C8.52516 4.62313 7.95344 4.86112 7.2856 4.86112V9.72224C7.95344 9.72224 8.52516 9.96023 9.00075 10.4362C9.47633 10.9122 9.71413 11.4844 9.71413 12.1528ZM23.0711 19.4445H2.42853C1.76069 19.4445 1.18897 19.2065 0.713381 18.7305C0.237794 18.2545 0 17.6823 0 17.0139V3.64585H2.42853V17.0139H23.0711V19.4445Z" fill="#D1D5DB"/>
</svg>
