<svg width="16" height="20" viewBox="0 0 16 20" fill="none" xmlns="http://www.w3.org/2000/svg">
<path d="M7.77778 19.4445C5.52546 18.8773 3.66609 17.5851 2.19965 15.5677C0.733218 13.5504 0 11.3102 0 8.84724V2.91668L7.77778 1.33514e-05L15.5556 2.91668V8.84724C15.5556 11.3102 14.8223 13.5504 13.3559 15.5677C11.8895 17.5851 10.0301 18.8773 7.77778 19.4445ZM7.77778 17.4028C9.34954 16.9167 10.662 15.9566 11.7153 14.5226C12.7685 13.0886 13.3843 11.4884 13.5625 9.72224H7.77778V2.06598L1.94444 4.25349V8.84724C1.94444 9.02548 1.94444 9.17131 1.94444 9.28474C1.94444 9.39816 1.96065 9.54399 1.99306 9.72224H7.77778V17.4028Z" fill="#00FFA3"/>
</svg>
