<svg width="24" height="22" viewBox="0 0 24 22" fill="none" xmlns="http://www.w3.org/2000/svg">
<path d="M2.42853 19.4444V2.43056C2.42853 2.43056 2.42853 2.88122 2.42853 3.78255C2.42853 4.68388 2.42853 5.85359 2.42853 7.29167V14.5833C2.42853 16.0214 2.42853 17.1911 2.42853 18.0924C2.42853 18.9938 2.42853 19.4444 2.42853 19.4444ZM2.42853 21.875C1.76069 21.875 1.18897 21.637 0.713381 21.161C0.237794 20.685 0 20.1128 0 19.4444V2.43056C0 1.76215 0.237794 1.18996 0.713381 0.713976C1.18897 0.237991 1.76069 0 2.42853 0H19.4283C20.0961 0 20.6678 0.237991 21.1434 0.713976C21.619 1.18996 21.8568 1.76215 21.8568 2.43056V5.46875H19.4283V2.43056H2.42853V19.4444H19.4283V16.4062H21.8568V19.4444C21.8568 20.1128 21.619 20.685 21.1434 21.161C20.6678 21.637 20.0961 21.875 19.4283 21.875H2.42853ZM12.1427 17.0139C11.4748 17.0139 10.9031 16.7759 10.4275 16.2999C9.95192 15.8239 9.71413 15.2517 9.71413 14.5833V7.29167C9.71413 6.62326 9.95192 6.05107 10.4275 5.57509C10.9031 5.0991 11.4748 4.86111 12.1427 4.86111H20.6425C21.3104 4.86111 21.8821 5.0991 22.3577 5.57509C22.8333 6.05107 23.0711 6.62326 23.0711 7.29167V14.5833C23.0711 15.2517 22.8333 15.8239 22.3577 16.2999C21.8821 16.7759 21.3104 17.0139 20.6425 17.0139H12.1427ZM20.6425 14.5833V7.29167H12.1427V14.5833H20.6425ZM15.7855 12.7604C15.7855 12.7604 15.9119 12.7604 16.1649 12.7604C16.4179 12.7604 16.7215 12.5832 17.0756 12.2287C17.4298 11.8743 17.6069 11.4439 17.6069 10.9375C17.6069 10.4311 17.4298 10.0007 17.0756 9.64627C16.7215 9.29181 16.2914 9.11458 15.7855 9.11458C15.2795 9.11458 14.8495 9.29181 14.4953 9.64627C14.1411 10.0007 13.9641 10.4311 13.9641 10.9375C13.9641 11.4439 14.1411 11.8743 14.4953 12.2287C14.8495 12.5832 15.2795 12.7604 15.7855 12.7604Z" fill="#D1D5DB"/>
</svg>
