<svg width="20" height="18" viewBox="0 0 20 18" fill="none" xmlns="http://www.w3.org/2000/svg">
<path d="M8.88889 11V6.85L7.11111 8.45L5.55556 7L10 3L14.4444 7L12.8889 8.45L11.1111 6.85V11H8.88889ZM2.22222 18C1.61111 18 1.08796 17.8042 0.652778 17.4125C0.217593 17.0208 0 16.55 0 16V2C0 1.45 0.217593 0.979166 0.652778 0.5875C1.08796 0.195833 1.61111 0 2.22222 0H17.7778C18.3889 0 18.912 0.195833 19.3472 0.5875C19.7824 0.979166 20 1.45 20 2V16C20 16.55 19.7824 17.0208 19.3472 17.4125C18.912 17.8042 18.3889 18 17.7778 18H2.22222ZM2.22222 16H17.7778V13H14.4444C13.8889 13.6333 13.2269 14.125 12.4583 14.475C11.6898 14.825 10.8704 15 10 15C9.12963 15 8.31019 14.825 7.54167 14.475C6.77315 14.125 6.11111 13.6333 5.55556 13H2.22222V16ZM10 13C10 13 10.1759 13 10.5278 13C10.8796 13 11.3426 12.8167 11.9167 12.45C12.4907 12.0833 12.8889 11.6 13.1111 11H17.7778V2H2.22222V11H6.88889C7.11111 11.6 7.50926 12.0833 8.08333 12.45C8.65741 12.8167 9.2963 13 10 13ZM2.22222 16H5.55556C6.11111 16 6.77315 16 7.54167 16C8.31019 16 9.12963 16 10 16C10.8704 16 11.6898 16 12.4583 16C13.2269 16 13.8889 16 14.4444 16H17.7778H2.22222Z" fill="#D1D5DB"/>
</svg>
